# Blender v2.78 (sub 0) OBJ File: ''
# www.blender.org
mtllib porta.mtl
o Cube
v 0.182260 -3.670952 -3.601764
v 0.182260 -3.670952 3.601764
v -0.182260 -3.670952 3.601763
v -0.182260 -3.670952 -3.601766
v 0.182260 3.670952 -3.601763
v 0.182260 3.670952 3.601767
v -0.182260 3.670952 3.601763
v -0.182260 3.670952 -3.601764
v 0.182260 -3.670952 -0.025195
v 0.182260 3.670952 0.006328
v 0.182260 0.535034 -0.007136
v 0.182260 0.225659 -0.008465
v 0.182260 0.539879 0.525815
v 0.182260 0.244599 0.488547
v 0.182260 0.530057 -0.549515
v 0.182260 0.204967 -0.549777
v 0.334367 0.535034 -0.007136
v 0.334367 0.225659 -0.008465
v 0.334367 0.539879 0.525815
v 0.334367 0.244599 0.488547
v 0.334367 0.530057 -0.549515
v 0.334367 0.204967 -0.549777
v -0.316149 0.535034 -0.007136
v -0.316149 0.225659 -0.008465
v -0.316149 0.539879 0.525815
v -0.316149 0.244599 0.488548
v -0.316149 0.530057 -0.549515
v -0.316149 0.204967 -0.549777
v 0.334367 0.228687 -0.571091
v 0.334367 0.523967 -0.533823
v -0.316149 0.228687 -0.571091
v -0.316149 0.523967 -0.533823
vn 0.0000 -1.0000 -0.0000
vn 0.0000 1.0000 0.0000
vn 1.0000 -0.0000 0.0000
vn -0.0000 -0.0000 1.0000
vn -1.0000 -0.0000 -0.0000
vn 0.0000 0.0000 -1.0000
vn 0.0000 -0.0008 1.0000
vn -0.0000 1.0000 -0.0092
vn 0.0000 -0.1252 0.9921
vn 0.0000 -1.0000 0.0092
vn -0.0000 0.0008 -1.0000
vn -0.0000 1.0000 -0.0091
vn 0.0000 -0.9993 0.0382
vn 0.0000 -0.9993 0.0381
vn 0.0000 -1.0000 0.0091
vn -0.0000 0.9993 -0.0382
vn -0.0000 0.9993 -0.0381
vn -0.0000 0.9999 -0.0150
vn 0.0000 0.1252 -0.9921
vn 0.0000 -0.9999 0.0150
usemtl Material
s off
f 1//1 9//1 2//1 3//1 4//1
f 5//2 8//2 7//2 6//2 10//2
f 1//3 5//3 10//3 11//3 15//3 16//3 12//3 9//3
f 2//4 6//4 7//4 3//4
f 3//5 7//5 8//5 4//5
f 5//6 1//6 4//6 8//6
f 22//7 21//7 27//7 28//7
f 9//3 12//3 14//3 13//3 11//3 10//3 6//3 2//3
f 15//8 11//8 17//8 21//8
f 13//9 14//9 20//9 19//9
f 21//10 17//10 23//10 27//10
f 16//11 15//11 21//11 22//11
f 11//12 13//12 19//12 17//12
f 12//13 16//13 22//13 18//13
f 14//14 12//14 18//14 20//14
f 23//3 25//3 26//3 24//3
f 24//3 28//3 27//3 23//3
f 17//15 19//15 25//15 23//15
f 18//16 22//16 28//16 24//16
f 20//17 18//17 24//17 26//17
f 25//18 19//18 30//18 32//18
f 30//19 29//19 31//19 32//19
f 19//3 20//3 29//3 30//3
f 20//20 26//20 31//20 29//20
f 26//5 25//5 32//5 31//5
