<?xml version="1.0" encoding="UTF-8" standalone="no"?>
<!-- Created with Inkscape (http://www.inkscape.org/) -->

<svg
   xmlns:dc="http://purl.org/dc/elements/1.1/"
   xmlns:cc="http://creativecommons.org/ns#"
   xmlns:rdf="http://www.w3.org/1999/02/22-rdf-syntax-ns#"
   xmlns:svg="http://www.w3.org/2000/svg"
   xmlns="http://www.w3.org/2000/svg"
   xmlns:xlink="http://www.w3.org/1999/xlink"
   xmlns:sodipodi="http://sodipodi.sourceforge.net/DTD/sodipodi-0.dtd"
   xmlns:inkscape="http://www.inkscape.org/namespaces/inkscape"
   width="210mm"
   height="297mm"
   viewBox="0 0 210 297"
   version="1.1"
   id="svg8"
   inkscape:version="0.92.3 (2405546, 2018-03-11)"
   sodipodi:docname="botao.svg">
  <defs
     id="defs2">
    <linearGradient
       inkscape:collect="always"
       id="linearGradient823">
      <stop
         style="stop-color:#0e8aee;stop-opacity:1"
         offset="0"
         id="stop819" />
      <stop
         style="stop-color:#003b6d;stop-opacity:1"
         offset="1"
         id="stop821" />
    </linearGradient>
    <linearGradient
       inkscape:collect="always"
       xlink:href="#linearGradient823"
       id="linearGradient825"
       x1="-255.21611"
       y1="221.40477"
       x2="-255.21611"
       y2="242.78549"
       gradientUnits="userSpaceOnUse" />
    <linearGradient
       inkscape:collect="always"
       xlink:href="#linearGradient823"
       id="linearGradient837"
       gradientUnits="userSpaceOnUse"
       x1="-255.21611"
       y1="221.40477"
       x2="-255.21611"
       y2="242.78549"
       gradientTransform="translate(41.010417)" />
    <linearGradient
       inkscape:collect="always"
       xlink:href="#linearGradient823"
       id="linearGradient847"
       gradientUnits="userSpaceOnUse"
       gradientTransform="translate(71.248512)"
       x1="-255.21611"
       y1="214.4122"
       x2="-255.21611"
       y2="237.96629" />
    <linearGradient
       inkscape:collect="always"
       xlink:href="#linearGradient823"
       id="linearGradient842"
       x1="-359.92499"
       y1="225.1114"
       x2="-359.92499"
       y2="248.73491"
       gradientUnits="userSpaceOnUse" />
    <linearGradient
       inkscape:collect="always"
       xlink:href="#linearGradient823"
       id="linearGradient852"
       gradientUnits="userSpaceOnUse"
       x1="-359.92499"
       y1="225.1114"
       x2="-359.92499"
       y2="248.73491"
       gradientTransform="translate(17.506154,2.6726953)" />
    <linearGradient
       inkscape:collect="always"
       xlink:href="#linearGradient823"
       id="linearGradient940"
       gradientUnits="userSpaceOnUse"
       gradientTransform="translate(17.506154,34.233707)"
       x1="-359.92499"
       y1="225.1114"
       x2="-359.92499"
       y2="248.73491" />
  </defs>
  <sodipodi:namedview
     id="base"
     pagecolor="#ffffff"
     bordercolor="#666666"
     borderopacity="1.0"
     inkscape:pageopacity="0.0"
     inkscape:pageshadow="2"
     inkscape:zoom="1.4"
     inkscape:cx="-1068.1775"
     inkscape:cy="-17.654354"
     inkscape:document-units="mm"
     inkscape:current-layer="layer1"
     showgrid="false"
     inkscape:snap-bbox="true"
     inkscape:snap-bbox-edge-midpoints="true"
     inkscape:bbox-nodes="true"
     inkscape:bbox-paths="true"
     inkscape:snap-intersection-paths="true"
     inkscape:object-paths="true"
     inkscape:snap-smooth-nodes="true"
     inkscape:snap-midpoints="true"
     inkscape:snap-global="false"
     inkscape:window-width="1920"
     inkscape:window-height="1027"
     inkscape:window-x="1592"
     inkscape:window-y="-8"
     inkscape:window-maximized="1" />
  <metadata
     id="metadata5">
    <rdf:RDF>
      <cc:Work
         rdf:about="">
        <dc:format>image/svg+xml</dc:format>
        <dc:type
           rdf:resource="http://purl.org/dc/dcmitype/StillImage" />
        <dc:title />
      </cc:Work>
    </rdf:RDF>
  </metadata>
  <g
     inkscape:label="Camada 1"
     inkscape:groupmode="layer"
     id="layer1">
    <path
       sodipodi:type="inkscape:offset"
       inkscape:radius="0.53911889"
       inkscape:original="M -266.0957 221.4043 L -266.0957 242.57227 L -244.92773 231.98828 L -266.0957 221.4043 z "
       style="fill:#0038ac;fill-opacity:1;stroke:none;stroke-width:0.26499999;stroke-linecap:round;stroke-linejoin:round;stroke-miterlimit:4;stroke-dasharray:none;stroke-opacity:1"
       id="path827"
       d="m -266.11523,220.86523 a 0.5391728,0.5391728 0 0 0 -0.51954,0.53907 v 21.16797 a 0.5391728,0.5391728 0 0 0 0.7793,0.48242 l 21.16797,-10.58399 a 0.5391728,0.5391728 0 0 0 0,-0.96484 l -21.16797,-10.58398 a 0.5391728,0.5391728 0 0 0 -0.25976,-0.0566 z"
       inkscape:export-xdpi="96"
       inkscape:export-ydpi="96" />
    <path
       style="fill:url(#linearGradient825);stroke:#4ebade;stroke-width:0.265;stroke-linecap:round;stroke-linejoin:round;stroke-opacity:1;fill-opacity:1;stroke-miterlimit:4;stroke-dasharray:none;paint-order:normal"
       d="m -266.09524,221.40477 21.16667,10.58333 -21.16667,10.58334 z"
       id="path817"
       inkscape:connector-curvature="0"
       inkscape:export-xdpi="96"
       inkscape:export-ydpi="96" />
    <path
       d="m -266.11523,220.86523 a 0.5391728,0.5391728 0 0 0 -0.51954,0.53907 v 21.16797 a 0.5391728,0.5391728 0 0 0 0.7793,0.48242 l 21.16797,-10.58399 a 0.5391728,0.5391728 0 0 0 0,-0.96484 l -21.16797,-10.58398 a 0.5391728,0.5391728 0 0 0 -0.25976,-0.0566 z"
       id="path833"
       style="fill:#0038ac;fill-opacity:1;stroke:none;stroke-width:0.26499999;stroke-linecap:round;stroke-linejoin:round;stroke-miterlimit:4;stroke-dasharray:none;stroke-opacity:1"
       inkscape:original="M -266.0957 221.4043 L -266.0957 242.57227 L -244.92773 231.98828 L -266.0957 221.4043 z "
       inkscape:radius="0.53911889"
       sodipodi:type="inkscape:offset"
       transform="translate(41.010417)"
       inkscape:export-xdpi="96"
       inkscape:export-ydpi="96" />
    <path
       inkscape:connector-curvature="0"
       id="path835"
       d="m -225.08482,221.40477 21.16667,10.58333 -21.16667,10.58334 z"
       style="fill:url(#linearGradient837);fill-opacity:1;stroke:#4ebade;stroke-width:0.26499999;stroke-linecap:round;stroke-linejoin:round;stroke-miterlimit:4;stroke-dasharray:none;stroke-opacity:1;paint-order:normal"
       inkscape:export-xdpi="96"
       inkscape:export-ydpi="96" />
    <path
       style="fill:#fafafa;fill-opacity:0.30991736;stroke:none;stroke-width:0.26499999;stroke-linecap:round;stroke-linejoin:round;stroke-miterlimit:4;stroke-dasharray:none;stroke-opacity:1;paint-order:normal"
       d="m -225.08482,221.40477 21.16667,10.58333 -21.16667,10.58334 z"
       id="path839"
       inkscape:connector-curvature="0"
       inkscape:export-xdpi="96"
       inkscape:export-ydpi="96" />
    <path
       transform="translate(71.248512)"
       sodipodi:type="inkscape:offset"
       inkscape:radius="0.53911889"
       inkscape:original="M -266.0957 221.4043 L -266.0957 242.57227 L -244.92773 231.98828 L -266.0957 221.4043 z "
       style="fill:#0038ac;fill-opacity:1;stroke:none;stroke-width:0.26499999;stroke-linecap:round;stroke-linejoin:round;stroke-miterlimit:4;stroke-dasharray:none;stroke-opacity:1"
       id="path841"
       d="m -266.11523,220.86523 a 0.5391728,0.5391728 0 0 0 -0.51954,0.53907 v 21.16797 a 0.5391728,0.5391728 0 0 0 0.7793,0.48242 l 21.16797,-10.58399 a 0.5391728,0.5391728 0 0 0 0,-0.96484 l -21.16797,-10.58398 a 0.5391728,0.5391728 0 0 0 -0.25976,-0.0566 z"
       inkscape:export-xdpi="96"
       inkscape:export-ydpi="96" />
    <path
       style="fill:url(#linearGradient847);fill-opacity:1;stroke:#1c7897;stroke-width:0.26499999;stroke-linecap:round;stroke-linejoin:round;stroke-miterlimit:4;stroke-dasharray:none;stroke-opacity:1;paint-order:normal"
       d="m -194.84672,221.40477 21.16667,10.58333 -21.16667,10.58334 z"
       id="path843"
       inkscape:connector-curvature="0"
       inkscape:export-xdpi="96"
       inkscape:export-ydpi="96" />
    <circle
       cx="-345.82059"
       cy="240.4463"
       r="11.518776"
       id="circle854"
       style="opacity:1;fill:#0038ac;fill-opacity:1;stroke:none;stroke-width:0.54419416;stroke-linecap:round;stroke-linejoin:round;stroke-miterlimit:4;stroke-dasharray:none;stroke-dashoffset:0;stroke-opacity:1;paint-order:normal"
       inkscape:export-filename="C:\Users\tobi\Desktop\mission.png"
       inkscape:export-xdpi="300"
       inkscape:export-ydpi="300" />
    <circle
       style="opacity:1;fill:url(#linearGradient852);fill-opacity:1;stroke:#4ebade;stroke-width:0.5;stroke-linecap:round;stroke-linejoin:round;stroke-miterlimit:4;stroke-dasharray:none;stroke-dashoffset:0;stroke-opacity:1;paint-order:normal"
       id="path834"
       r="10.583333"
       cy="240.4463"
       cx="-345.82059"
       inkscape:export-filename="C:\Users\tobi\Desktop\mission.png"
       inkscape:export-xdpi="300"
       inkscape:export-ydpi="300" />
    <path
       cx="-363.32675"
       cy="237.77361"
       r="10.583333"
       id="path850"
       style="opacity:1;fill:url(#linearGradient842);fill-opacity:1;stroke:#4ebade;stroke-width:0.5;stroke-linecap:round;stroke-linejoin:round;stroke-miterlimit:4;stroke-dasharray:none;stroke-dashoffset:0;stroke-opacity:1;paint-order:normal" />
    <path
       sodipodi:type="inkscape:offset"
       inkscape:radius="0.44947219"
       inkscape:original="M -345.9082 234.30273 C -348.40374 234.30273 -349.31641 235.91992 -349.31641 238.27148 L -346.5332 238.27148 C -346.5332 237.24767 -346.35566 236.52734 -345.84375 236.52734 C -345.33184 236.52734 -345.20508 236.7672 -345.20508 237.79102 C -345.20508 239.03879 -347.63672 238.70312 -347.63672 241.72656 L -347.63672 242.58984 L -344.93359 242.58984 L -344.93359 241.72656 C -344.93359 239.74293 -342.32617 240.15811 -342.32617 237.72656 C -342.32617 235.375 -343.04473 234.30273 -345.9082 234.30273 z M -347.63672 243.88477 L -347.63672 246.58984 L -344.93359 246.58984 L -344.93359 243.88477 L -347.63672 243.88477 z "
       style="font-style:normal;font-weight:normal;font-size:15.9970541px;line-height:1.25;font-family:sans-serif;letter-spacing:0px;word-spacing:0px;fill:#0038ac;fill-opacity:1;stroke:none;stroke-width:0.40000001;stroke-miterlimit:4;stroke-dasharray:none;stroke-opacity:0.51652892"
       id="text900"
       d="m -345.9082,233.85352 c -1.34486,0 -2.36739,0.46456 -2.9961,1.27734 -0.6287,0.81278 -0.86133,1.9067 -0.86132,3.14062 a 0.44951714,0.44951714 0 0 0 0.44921,0.44922 h 2.64649 c -0.007,0.005 -0.0105,0.007 -0.0176,0.0117 -0.66472,0.49204 -1.39844,1.36192 -1.39844,2.99414 v 0.86328 a 0.44951714,0.44951714 0 0 0 0.44922,0.44922 h 2.70313 a 0.44951714,0.44951714 0 0 0 0.44921,-0.44922 v -0.86328 c 0,-0.39744 0.10717,-0.60872 0.29493,-0.82226 0.18775,-0.21354 0.48132,-0.40967 0.81445,-0.63868 0.33313,-0.229 0.70712,-0.49681 1.00391,-0.90234 0.29679,-0.40553 0.49414,-0.9485 0.49414,-1.63672 0,-1.22156 -0.18123,-2.21369 -0.8418,-2.90429 -0.66057,-0.69061 -1.70161,-0.96875 -3.18945,-0.96875 z m 0.0645,3.12304 c 0.0802,0 0.1043,0.01 0.11133,0.0117 0.0221,0.0472 0.0781,0.31525 0.0781,0.80274 0,0.16595 -0.0413,0.22224 -0.21875,0.37109 -0.0463,0.0388 -0.15101,0.10533 -0.21289,0.14844 a 0.44951714,0.44951714 0 0 0 0.002,-0.0391 c 0,-0.48592 0.0499,-0.88837 0.12695,-1.10742 0.0385,-0.10952 0.0819,-0.16675 0.0976,-0.18164 0.0158,-0.0149 -0.007,-0.006 0.0156,-0.006 z m -1.79297,6.45899 a 0.44951714,0.44951714 0 0 0 -0.44922,0.44922 v 2.70507 a 0.44951714,0.44951714 0 0 0 0.44922,0.44922 h 2.70313 a 0.44951714,0.44951714 0 0 0 0.44921,-0.44922 v -2.70507 a 0.44951714,0.44951714 0 0 0 -0.44921,-0.44922 z"
       inkscape:export-filename="C:\Users\tobi\Desktop\mission.png"
       inkscape:export-xdpi="300"
       inkscape:export-ydpi="300" />
    <text
       xml:space="preserve"
       style="font-style:normal;font-weight:normal;font-size:15.9970541px;line-height:1.25;font-family:sans-serif;letter-spacing:0px;word-spacing:0px;fill:#ffffff;fill-opacity:1;stroke:#4ebade;stroke-width:0.40000001;stroke-miterlimit:4;stroke-dasharray:none;stroke-opacity:1"
       x="-349.85986"
       y="246.58917"
       id="text860"
       inkscape:export-filename="C:\Users\tobi\Desktop\mission.png"
       inkscape:export-xdpi="300"
       inkscape:export-ydpi="300"><tspan
         sodipodi:role="line"
         id="tspan858"
         x="-349.85986"
         y="246.58917"
         style="font-style:normal;font-variant:normal;font-weight:normal;font-stretch:normal;font-family:Muro;-inkscape-font-specification:Muro;fill:#ffffff;stroke:#4ebade;stroke-width:0.40000001;stroke-miterlimit:4;stroke-dasharray:none;stroke-opacity:1">?</tspan></text>
    <circle
       inkscape:export-ydpi="300"
       inkscape:export-xdpi="300"
       inkscape:export-filename="C:\Users\tobi\Desktop\mission.png"
       style="opacity:1;fill:#0038ac;fill-opacity:1;stroke:none;stroke-width:0.54419416;stroke-linecap:round;stroke-linejoin:round;stroke-miterlimit:4;stroke-dasharray:none;stroke-dashoffset:0;stroke-opacity:1;paint-order:normal"
       id="circle930"
       r="11.518776"
       cy="272.00732"
       cx="-345.82059" />
    <circle
       inkscape:export-ydpi="300"
       inkscape:export-xdpi="300"
       inkscape:export-filename="C:\Users\tobi\Desktop\mission.png"
       cx="-345.82059"
       cy="272.00732"
       r="10.583333"
       id="circle932"
       style="opacity:1;fill:url(#linearGradient940);fill-opacity:1;stroke:#4ebade;stroke-width:0.5;stroke-linecap:round;stroke-linejoin:round;stroke-miterlimit:4;stroke-dasharray:none;stroke-dashoffset:0;stroke-opacity:1;paint-order:normal" />
    <path
       sodipodi:type="inkscape:offset"
       inkscape:radius="0.61602139"
       inkscape:original="M -347.30273 266.08594 L -346.97266 274.00391 L -344.66992 274.00391 L -344.33789 266.08594 L -347.30273 266.08594 z M -347.2207 275.12891 L -347.2207 277.92969 L -344.42188 277.92969 L -344.42188 275.12891 L -347.2207 275.12891 z "
       style="font-style:normal;font-variant:normal;font-weight:normal;font-stretch:normal;font-size:16.56418991px;line-height:1.25;font-family:Muro;-inkscape-font-specification:Muro;letter-spacing:0px;word-spacing:0px;fill:#0038ac;fill-opacity:1;stroke:none;stroke-width:0.41410473;stroke-opacity:1"
       id="text948"
       d="m -347.30273,265.4707 a 0.616083,0.616083 0 0 0 -0.61524,0.64063 l 0.33008,7.91797 a 0.616083,0.616083 0 0 0 0.2793,0.49023 0.616083,0.616083 0 0 0 -0.52735,0.60938 v 2.80078 a 0.616083,0.616083 0 0 0 0.61524,0.61523 h 2.79882 a 0.616083,0.616083 0 0 0 0.61524,-0.61523 v -2.80078 a 0.616083,0.616083 0 0 0 -0.52734,-0.60938 0.616083,0.616083 0 0 0 0.27929,-0.49023 l 0.33203,-7.91797 a 0.616083,0.616083 0 0 0 -0.61523,-0.64063 z"
       inkscape:export-filename="C:\Users\tobi\Desktop\mission.png"
       inkscape:export-xdpi="300"
       inkscape:export-ydpi="300" />
    <text
       xml:space="preserve"
       style="font-style:normal;font-variant:normal;font-weight:normal;font-stretch:normal;font-size:16.56418991px;line-height:1.25;font-family:Muro;-inkscape-font-specification:Muro;letter-spacing:0px;word-spacing:0px;fill:#ffffff;fill-opacity:1;stroke:#4ebade;stroke-width:0.41410473;stroke-opacity:1;"
       x="-347.86627"
       y="277.92902"
       id="text944"
       inkscape:export-filename="C:\Users\tobi\Desktop\mission.png"
       inkscape:export-xdpi="300"
       inkscape:export-ydpi="300"><tspan
         sodipodi:role="line"
         id="tspan942"
         x="-347.86627"
         y="277.92902"
         style="font-style:normal;font-variant:normal;font-weight:normal;font-stretch:normal;font-family:Muro;-inkscape-font-specification:Muro;stroke-width:0.41410473;fill:#ffffff;fill-opacity:1;stroke:#4ebade;stroke-opacity:1;">!</tspan></text>
  </g>
</svg>
